{
  "accessors": [
    {
      "bufferView": 2,
      "componentType": 5126,
      "count": 2474,
      "max": [
        0.68360722064971924,
        6.9846534729003906,
        2.8237454891204834
      ],
      "min": [
        -0.16734708845615387,
        6.6713624000549316,
        -2.8909261226654053
      ],
      "type": "VEC3"
    },
    {
      "bufferView": 2,
      "byteOffset": 29688,
      "componentType": 5126,
      "count": 2474,
      "max": [
        1,
        1,
        1
      ],
      "min": [
        -1,
        -1,
        -1
      ],
      "type": "VEC3"
    },
    {
      "bufferView": 3,
      "componentType": 5126,
      "count": 2474,
      "max": [
        1,
        1,
        1,
        1
      ],
      "min": [
        -0.99999988079071045,
        -1,
        -1,
        -1
      ],
      "type": "VEC4"
    },
    {
      "bufferView": 0,
      "componentType": 5125,
      "count": 8496,
      "max": [
        2473
      ],
      "min": [
        0
      ],
      "type": "SCALAR"
    },
    {
      "bufferView": 2,
      "byteOffset": 59376,
      "componentType": 5126,
      "count": 2078,
      "max": [
        1.0707433223724365,
        7.675168514251709,
        3.8897387981414795
      ],
      "min": [
        -1.0707433223724365,
        1.2698602676391602,
        -3.8897387981414795
      ],
      "type": "VEC3"
    },
    {
      "bufferView": 2,
      "byteOffset": 84312,
      "componentType": 5126,
      "count": 2078,
      "max": [
        1,
        1,
        1
      ],
      "min": [
        -1,
        -1,
        -1
      ],
      "type": "VEC3"
    },
    {
      "bufferView": 3,
      "byteOffset": 39584,
      "componentType": 5126,
      "count": 2078,
      "max": [
        1,
        1,
        0.99968910217285156,
        1
      ],
      "min": [
        -0.9999995231628418,
        -0.99990981817245483,
        -0.99935317039489746,
        1
      ],
      "type": "VEC4"
    },
    {
      "bufferView": 1,
      "componentType": 5126,
      "count": 2078,
      "max": [
        7.7848711013793945,
        8.1747322082519531
      ],
      "min": [
        -6.7848711013793945,
        -7.1747322082519531
      ],
      "type": "VEC2"
    },
    {
      "bufferView": 0,
      "byteOffset": 33984,
      "componentType": 5125,
      "count": 10800,
      "max": [
        2077
      ],
      "min": [
        0
      ],
      "type": "SCALAR"
    }
  ],
  "asset": {
    "extras": {
      "author": "Bryan (https://sketchfab.com/BryanSanchinolo)",
      "license": "CC-BY-4.0 (http://creativecommons.org/licenses/by/4.0/)",
      "source": "https://sketchfab.com/models/2b576e4feafc42cb9064d0e8724dc54e",
      "title": "Briefcase"
    },
    "generator": "Sketchfab-3.20.7",
    "version": "2.0"
  },
  "bufferViews": [
    {
      "buffer": 0,
      "byteLength": 77184,
      "byteOffset": 0,
      "name": "floatBufferViews",
      "target": 34963
    },
    {
      "buffer": 0,
      "byteLength": 16624,
      "byteOffset": 77184,
      "byteStride": 8,
      "name": "floatBufferViews",
      "target": 34962
    },
    {
      "buffer": 0,
      "byteLength": 109248,
      "byteOffset": 93808,
      "byteStride": 12,
      "name": "floatBufferViews",
      "target": 34962
    },
    {
      "buffer": 0,
      "byteLength": 72832,
      "byteOffset": 203056,
      "byteStride": 16,
      "name": "floatBufferViews",
      "target": 34962
    }
  ],
  "buffers": [
    {
      "byteLength": 275888,
      "uri": "scene.bin"
    }
  ],
  "extensionsRequired": [
    "KHR_materials_pbrSpecularGlossiness"
  ],
  "extensionsUsed": [
    "KHR_materials_pbrSpecularGlossiness"
  ],
  "images": [
    {
      "uri": "textures/Team3_Sanchez_BriefcaseLeather_diffuse.jpeg"
    }
  ],
  "materials": [
    {
      "doubleSided": true,
      "emissiveFactor": [
        0,
        0,
        0
      ],
      "extensions": {
        "KHR_materials_pbrSpecularGlossiness": {
          "diffuseFactor": [
            0.74109999999999998,
            0.57230000000000003,
            0.028899999999999999,
            1
          ],
          "glossinessFactor": 1,
          "specularFactor": [
            1,
            1,
            1
          ]
        }
      },
      "name": "Team3_Sanchez_BriefcaseLocks"
    },
    {
      "doubleSided": true,
      "emissiveFactor": [
        0,
        0,
        0
      ],
      "extensions": {
        "KHR_materials_pbrSpecularGlossiness": {
          "diffuseFactor": [
            0.068788109799999997,
            0.068788109799999997,
            0.068788109799999997,
            1
          ],
          "diffuseTexture": {
            "index": 0,
            "texCoord": 0
          },
          "glossinessFactor": 0.50171493899999997,
          "specularFactor": [
            0,
            0,
            0
          ]
        }
      },
      "name": "Team3_Sanchez_BriefcaseLeather"
    }
  ],
  "meshes": [
    {
      "name": "Team3_Sanchez_Briefcase_Team3_Sanchez_BriefcaseLocks_0",
      "primitives": [
        {
          "attributes": {
            "NORMAL": 1,
            "POSITION": 0,
            "TANGENT": 2
          },
          "indices": 3,
          "material": 0,
          "mode": 4
        }
      ]
    },
    {
      "name": "Team3_Sanchez_Briefcase_Team3_Sanchez_BriefcaseLeather_0",
      "primitives": [
        {
          "attributes": {
            "NORMAL": 5,
            "POSITION": 4,
            "TANGENT": 6,
            "TEXCOORD_0": 7
          },
          "indices": 8,
          "material": 1,
          "mode": 4
        }
      ]
    }
  ],
  "nodes": [
    {
      "children": [
        1
      ],
      "name": "RootNode (gltf orientation matrix)",
      "rotation": [
        -0.70710678118654746,
        -0,
        -0,
        0.70710678118654757
      ]
    },
    {
      "children": [
        2
      ],
      "name": "RootNode (model correction matrix)"
    },
    {
      "children": [
        3
      ],
      "matrix": [
        1,
        0,
        0,
        0,
        0,
        0,
        1,
        0,
        0,
        -1,
        0,
        0,
        0,
        0,
        0,
        1
      ],
      "name": "363db233b91d4c98927331dbd08abbe8.fbx"
    },
    {
      "children": [
        4
      ],
      "name": "RootNode"
    },
    {
      "children": [
        5,
        6
      ],
      "name": "Team3_Sanchez_Briefcase"
    },
    {
      "mesh": 0,
      "name": "Team3_Sanchez_Briefcase_Team3_Sanchez_BriefcaseLocks_0"
    },
    {
      "mesh": 1,
      "name": "Team3_Sanchez_Briefcase_Team3_Sanchez_BriefcaseLeather_0"
    }
  ],
  "samplers": [
    {
      "magFilter": 9729,
      "minFilter": 9987,
      "wrapS": 10497,
      "wrapT": 10497
    }
  ],
  "scene": 0,
  "scenes": [
    {
      "name": "OSG_Scene",
      "nodes": [
        0
      ]
    }
  ],
  "textures": [
    {
      "sampler": 0,
      "source": 0
    }
  ]
}

