{
  "accessors": [
    {
      "bufferView": 2,
      "componentType": 5126,
      "count": 3009,
      "max": [
        120.47967529296875,
        200.42111206054688,
        790.28509521484375
      ],
      "min": [
        -120.47967529296875,
        -205.91763305664062,
        -89.199867248535156
      ],
      "type": "VEC3"
    },
    {
      "bufferView": 2,
      "byteOffset": 36108,
      "componentType": 5126,
      "count": 3009,
      "max": [
        1,
        1,
        1
      ],
      "min": [
        -1,
        -1,
        -1
      ],
      "type": "VEC3"
    },
    {
      "bufferView": 3,
      "componentType": 5126,
      "count": 3009,
      "max": [
        0.99999761581420898,
        0.99999970197677612,
        0.99999868869781494,
        1
      ],
      "min": [
        -1,
        -0.99999171495437622,
        -1,
        1
      ],
      "type": "VEC4"
    },
    {
      "bufferView": 1,
      "componentType": 5126,
      "count": 3009,
      "max": [
        0.98380959033966064,
        0.98771059513092041
      ],
      "min": [
        0.0094389691948890686,
        0.011038425378501415
      ],
      "type": "VEC2"
    },
    {
      "bufferView": 0,
      "componentType": 5125,
      "count": 7152,
      "max": [
        3008
      ],
      "min": [
        0
      ],
      "type": "SCALAR"
    }
  ],
  "asset": {
    "extras": {
      "author": "Javier_Fernandez (https://sketchfab.com/Javier.Fernandez)",
      "license": "CC-BY-4.0 (http://creativecommons.org/licenses/by/4.0/)",
      "source": "https://sketchfab.com/3d-models/low-poly-cargo-ship-4c22cbaf01c1427f8ab60b3a07b1b32c",
      "title": "Low Poly Cargo Ship"
    },
    "generator": "Sketchfab-10.6.0",
    "version": "2.0"
  },
  "bufferViews": [
    {
      "buffer": 0,
      "byteLength": 28608,
      "byteOffset": 0,
      "name": "floatBufferViews",
      "target": 34963
    },
    {
      "buffer": 0,
      "byteLength": 24072,
      "byteOffset": 28608,
      "byteStride": 8,
      "name": "floatBufferViews",
      "target": 34962
    },
    {
      "buffer": 0,
      "byteLength": 72216,
      "byteOffset": 52680,
      "byteStride": 12,
      "name": "floatBufferViews",
      "target": 34962
    },
    {
      "buffer": 0,
      "byteLength": 48144,
      "byteOffset": 124896,
      "byteStride": 16,
      "name": "floatBufferViews",
      "target": 34962
    }
  ],
  "buffers": [
    {
      "byteLength": 173040,
      "uri": "scene.bin"
    }
  ],
  "images": [
    {
      "uri": "textures/Material_2_baseColor.png"
    },
    {
      "uri": "textures/Material_2_metallicRoughness.png"
    },
    {
      "uri": "textures/Material_2_normal.png"
    }
  ],
  "materials": [
    {
      "doubleSided": true,
      "emissiveFactor": [
        0,
        0,
        0
      ],
      "name": "Material_2",
      "normalTexture": {
        "index": 2,
        "scale": 1,
        "texCoord": 0
      },
      "occlusionTexture": {
        "index": 1,
        "strength": 1,
        "texCoord": 0
      },
      "pbrMetallicRoughness": {
        "baseColorFactor": [
          1,
          1,
          1,
          1
        ],
        "baseColorTexture": {
          "index": 0,
          "texCoord": 0
        },
        "metallicFactor": 1,
        "metallicRoughnessTexture": {
          "index": 1,
          "texCoord": 0
        },
        "roughnessFactor": 1
      }
    }
  ],
  "meshes": [
    {
      "name": "Box002_Material #2_0",
      "primitives": [
        {
          "attributes": {
            "NORMAL": 1,
            "POSITION": 0,
            "TANGENT": 2,
            "TEXCOORD_0": 3
          },
          "indices": 4,
          "material": 0,
          "mode": 4
        }
      ]
    }
  ],
  "nodes": [
    {
      "children": [
        1
      ],
      "name": "RootNode (gltf orientation matrix)",
      "rotation": [
        -0.70710678118654746,
        -0,
        -0,
        0.70710678118654757
      ]
    },
    {
      "children": [
        2
      ],
      "name": "RootNode (model correction matrix)"
    },
    {
      "children": [
        3
      ],
      "matrix": [
        1,
        0,
        0,
        0,
        0,
        0,
        1,
        0,
        0,
        -1,
        0,
        0,
        0,
        0,
        0,
        1
      ],
      "name": "3578f009b5c84cd3b53fd4bb428065d2.fbx"
    },
    {
      "children": [
        4
      ],
      "name": "RootNode"
    },
    {
      "children": [
        5
      ],
      "matrix": [
        3.2803130149841309,
        0,
        0,
        0,
        0,
        2.2952464700311563e-15,
        -10.336871147155762,
        0,
        0,
        1.4900109767913818,
        3.3084889867560237e-16,
        0,
        0,
        0,
        0,
        1
      ],
      "name": "Box002"
    },
    {
      "children": [
        6
      ],
      "matrix": [
        1,
        0,
        -0,
        0,
        0,
        1,
        0,
        0,
        0,
        0,
        1,
        0,
        0,
        2.7482607364654541,
        -350.5426025390625,
        1
      ],
      "name": ""
    },
    {
      "mesh": 0,
      "name": "Box002_Material #2_0"
    }
  ],
  "samplers": [
    {
      "magFilter": 9729,
      "minFilter": 9987,
      "wrapS": 10497,
      "wrapT": 10497
    }
  ],
  "scene": 0,
  "scenes": [
    {
      "name": "OSG_Scene",
      "nodes": [
        0
      ]
    }
  ],
  "textures": [
    {
      "sampler": 0,
      "source": 0
    },
    {
      "sampler": 0,
      "source": 1
    },
    {
      "sampler": 0,
      "source": 2
    }
  ]
}

