<?xml version="1.0" encoding="UTF-8"?> <svg xmlns:rdf="http://www.w3.org/1999/02/22-rdf-syntax-ns#" xmlns="http://www.w3.org/2000/svg" xmlns:cc="http://creativecommons.org/ns#" xmlns:xlink="http://www.w3.org/1999/xlink" xmlns:dc="http://purl.org/dc/elements/1.1/" xmlns:svg="http://www.w3.org/2000/svg" xmlns:inkscape="http://www.inkscape.org/namespaces/inkscape" xmlns:sodipodi="http://sodipodi.sourceforge.net/DTD/sodipodi-0.dtd" xmlns:ns1="http://sozi.baierouge.fr" id="svg4443" viewBox="0 0 1000 1000"><defs id="defs4445"><linearGradient id="linearGradient4441" y2="190.2" gradientUnits="userSpaceOnUse" y1="207.01" x2="-286.38" x1="-359.49"><stop id="stop4410" offset="0"></stop><stop id="stop4416" stop-color="#333" offset=".48752"></stop><stop id="stop4412" offset="1"></stop></linearGradient></defs><g id="layer1" transform="translate(0 -52.362)"><g id="g4420" transform="matrix(3.8656 0 0 3.8656 1706.3 -343.28)"><path id="path4418" fill="#1a1a1a" d="m-270.97 296.77-19.698-1.0102 74.499-54.296 29.294 2.0203 1.5152 7.8287z"></path><path id="path4384" stroke="#000" stroke-width="1px" d="m-393.93 263.79c-68.545-1.2883-50.325 79.738 25 63.929 28.335-5.6385 55.61-23.077 78.836-40.129 22.611-16.601 44.529-37.246 62.886-48.495 13.924-8.5327 38.494-9.8934 41.135 10.41-32.303-17.545-56.645 30.316-97.339 46.355 72.309 1.836 101.55-14.511 97.697-45.997-7.0406-24.831-25.793-14.525-41.786-12.5-10.838-35.809-11.446-77.588-12.143-118.93-58.485-4.5435-122.53 4.6459-180 24.643 15.157 41.753 26.815 82.701 25.714 120.71z"></path><path id="path4396" fill="url(#linearGradient4441)" d="m-357.59 273.03c10.45 3.0257 46.179-4.0599 96.975-17.173-8.923-46.299 20.178-16.422-26.769-138.77-41.274 2.3959-69.817 8.1375-96.47 14.521z"></path><path id="path4394" fill="#1a1a1a" d="m-394.46 275.22c-0.40507 10.588-0.82668 22.262-2.1428 28.75 38.342 5.1625 72.444-6.0312 107.68-12.857l51.071-40.357c-51.274 9.2787-97.231 24.994-156.61 24.464z"></path><path id="path4392" stroke="#333" stroke-width="1px" fill="#333" d="m-356.96 324.59c21.405-6.8156 47.287-22.888 74.112-41.948 18.975-13.482 37.123-30.297 56.695-43.699 17.781-12.175 38.346-4.3515 39.953 8.4591-11.903-5.2614-22.886-3.7055-32.886 2.4508-42.905 25.017-53.577 53.098-137.87 74.737z"></path></g></g><metadata></metadata></svg> 