{
  "accessors": [
    {
      "bufferView": 2,
      "componentType": 5126,
      "count": 24,
      "max": [
        93.331199645996094,
        26.057100296020508,
        161.30690002441406
      ],
      "min": [
        -305.41891479492188,
        -1.3741999864578247,
        -247.03750610351562
      ],
      "type": "VEC3"
    },
    {
      "bufferView": 2,
      "byteOffset": 288,
      "componentType": 5126,
      "count": 24,
      "max": [
        1,
        1,
        1
      ],
      "min": [
        -1,
        -1,
        -1
      ],
      "type": "VEC3"
    },
    {
      "bufferView": 3,
      "componentType": 5126,
      "count": 24,
      "max": [
        1,
        0,
        1,
        1
      ],
      "min": [
        -1,
        0,
        -1,
        -1
      ],
      "type": "VEC4"
    },
    {
      "bufferView": 1,
      "componentType": 5126,
      "count": 24,
      "max": [
        1,
        1
      ],
      "min": [
        0,
        0
      ],
      "type": "VEC2"
    },
    {
      "bufferView": 0,
      "componentType": 5125,
      "count": 36,
      "max": [
        23
      ],
      "min": [
        0
      ],
      "type": "SCALAR"
    },
    {
      "bufferView": 2,
      "byteOffset": 576,
      "componentType": 5126,
      "count": 4644,
      "max": [
        62.221500396728516,
        -1.1181000471115112,
        140.82279968261719
      ],
      "min": [
        -225.54849243164062,
        -61.055301666259766,
        -224.158203125
      ],
      "type": "VEC3"
    },
    {
      "bufferView": 2,
      "byteOffset": 56304,
      "componentType": 5126,
      "count": 4644,
      "max": [
        1,
        1,
        1
      ],
      "min": [
        -1,
        -1,
        -1
      ],
      "type": "VEC3"
    },
    {
      "bufferView": 3,
      "byteOffset": 384,
      "componentType": 5126,
      "count": 4644,
      "max": [
        1,
        1,
        1,
        1
      ],
      "min": [
        -1,
        -0.99784582853317261,
        -1,
        -1
      ],
      "type": "VEC4"
    },
    {
      "bufferView": 1,
      "byteOffset": 192,
      "componentType": 5126,
      "count": 4644,
      "max": [
        0.94199997186660767,
        0.991100013256073
      ],
      "min": [
        0.016200000420212746,
        0.21480000019073486
      ],
      "type": "VEC2"
    },
    {
      "bufferView": 0,
      "byteOffset": 144,
      "componentType": 5125,
      "count": 7374,
      "max": [
        4643
      ],
      "min": [
        0
      ],
      "type": "SCALAR"
    },
    {
      "bufferView": 2,
      "byteOffset": 112032,
      "componentType": 5126,
      "count": 3673,
      "max": [
        64.29730224609375,
        10.263999938964844,
        148.53230285644531
      ],
      "min": [
        -235.91270446777344,
        -68.192298889160156,
        -228.37199401855469
      ],
      "type": "VEC3"
    },
    {
      "bufferView": 2,
      "byteOffset": 156108,
      "componentType": 5126,
      "count": 3673,
      "max": [
        1,
        1,
        1
      ],
      "min": [
        -1,
        -1,
        -1
      ],
      "type": "VEC3"
    },
    {
      "bufferView": 3,
      "byteOffset": 74688,
      "componentType": 5126,
      "count": 3673,
      "max": [
        1,
        0.99990040063858032,
        1,
        1
      ],
      "min": [
        -1,
        -1,
        -1,
        -1
      ],
      "type": "VEC4"
    },
    {
      "bufferView": 1,
      "byteOffset": 37344,
      "componentType": 5126,
      "count": 3673,
      "max": [
        0.97879999876022339,
        0.98210000991821289
      ],
      "min": [
        0.016200000420212746,
        0.017899999395012856
      ],
      "type": "VEC2"
    },
    {
      "bufferView": 0,
      "byteOffset": 29640,
      "componentType": 5125,
      "count": 7512,
      "max": [
        3672
      ],
      "min": [
        0
      ],
      "type": "SCALAR"
    },
    {
      "bufferView": 2,
      "byteOffset": 200184,
      "componentType": 5126,
      "count": 4122,
      "max": [
        59.305400848388672,
        -0.63590002059936523,
        144.41279602050781
      ],
      "min": [
        -225.54849243164062,
        -66.786796569824219,
        -223.16090393066406
      ],
      "type": "VEC3"
    },
    {
      "bufferView": 2,
      "byteOffset": 249648,
      "componentType": 5126,
      "count": 4122,
      "max": [
        1,
        1,
        1
      ],
      "min": [
        -1,
        -1,
        -1
      ],
      "type": "VEC3"
    },
    {
      "bufferView": 3,
      "byteOffset": 133456,
      "componentType": 5126,
      "count": 4122,
      "max": [
        1,
        1,
        1,
        1
      ],
      "min": [
        -1,
        -1,
        -1,
        -1
      ],
      "type": "VEC4"
    },
    {
      "bufferView": 1,
      "byteOffset": 66728,
      "componentType": 5126,
      "count": 4122,
      "max": [
        0.96740001440048218,
        0.99210000038146973
      ],
      "min": [
        0.016200000420212746,
        0.016100000590085983
      ],
      "type": "VEC2"
    },
    {
      "bufferView": 0,
      "byteOffset": 59688,
      "componentType": 5125,
      "count": 12351,
      "max": [
        4121
      ],
      "min": [
        0
      ],
      "type": "SCALAR"
    },
    {
      "bufferView": 2,
      "byteOffset": 299112,
      "componentType": 5126,
      "count": 5318,
      "max": [
        64.29730224609375,
        10.263999938964844,
        149.75360107421875
      ],
      "min": [
        -237.11740112304688,
        -82.688697814941406,
        -229.59129333496094
      ],
      "type": "VEC3"
    },
    {
      "bufferView": 2,
      "byteOffset": 362928,
      "componentType": 5126,
      "count": 5318,
      "max": [
        1,
        1,
        1
      ],
      "min": [
        -1,
        -1,
        -1
      ],
      "type": "VEC3"
    },
    {
      "bufferView": 3,
      "byteOffset": 199408,
      "componentType": 5126,
      "count": 5318,
      "max": [
        1,
        1,
        1,
        1
      ],
      "min": [
        -1,
        -1,
        -1,
        -1
      ],
      "type": "VEC4"
    },
    {
      "bufferView": 1,
      "byteOffset": 99704,
      "componentType": 5126,
      "count": 5318,
      "max": [
        0.98879998922348022,
        0.99650001525878906
      ],
      "min": [
        0.016200000420212746,
        0.012199999764561653
      ],
      "type": "VEC2"
    },
    {
      "bufferView": 0,
      "byteOffset": 109092,
      "componentType": 5125,
      "count": 13284,
      "max": [
        5317
      ],
      "min": [
        0
      ],
      "type": "SCALAR"
    },
    {
      "bufferView": 2,
      "byteOffset": 426744,
      "componentType": 5126,
      "count": 7112,
      "max": [
        56.329399108886719,
        10.263999938964844,
        150.22650146484375
      ],
      "min": [
        -237.11740112304688,
        -83.878997802734375,
        -230.06619262695312
      ],
      "type": "VEC3"
    },
    {
      "bufferView": 2,
      "byteOffset": 512088,
      "componentType": 5126,
      "count": 7112,
      "max": [
        1,
        1,
        1
      ],
      "min": [
        -1,
        -1,
        -1
      ],
      "type": "VEC3"
    },
    {
      "bufferView": 3,
      "byteOffset": 284496,
      "componentType": 5126,
      "count": 7112,
      "max": [
        1,
        1,
        1,
        1
      ],
      "min": [
        -1,
        -1,
        -1,
        -1
      ],
      "type": "VEC4"
    },
    {
      "bufferView": 1,
      "byteOffset": 142248,
      "componentType": 5126,
      "count": 7112,
      "max": [
        0.98909997940063477,
        0.98930001258850098
      ],
      "min": [
        0.0099999997764825821,
        0.0099999997764825821
      ],
      "type": "VEC2"
    },
    {
      "bufferView": 0,
      "byteOffset": 162228,
      "componentType": 5125,
      "count": 25368,
      "max": [
        7111
      ],
      "min": [
        0
      ],
      "type": "SCALAR"
    },
    {
      "bufferView": 2,
      "byteOffset": 597432,
      "componentType": 5126,
      "count": 3066,
      "max": [
        64.29730224609375,
        -3.9811000823974609,
        150.22650146484375
      ],
      "min": [
        -237.11740112304688,
        -80.588996887207031,
        -230.06619262695312
      ],
      "type": "VEC3"
    },
    {
      "bufferView": 2,
      "byteOffset": 634224,
      "componentType": 5126,
      "count": 3066,
      "max": [
        1,
        1,
        1
      ],
      "min": [
        -1,
        -0.99986791610717773,
        -1
      ],
      "type": "VEC3"
    },
    {
      "bufferView": 3,
      "byteOffset": 398288,
      "componentType": 5126,
      "count": 3066,
      "max": [
        1,
        1,
        1,
        1
      ],
      "min": [
        -1,
        -1,
        -1,
        -1
      ],
      "type": "VEC4"
    },
    {
      "bufferView": 1,
      "byteOffset": 199144,
      "componentType": 5126,
      "count": 3066,
      "max": [
        0.98879998922348022,
        0.98869997262954712
      ],
      "min": [
        0.014100000262260437,
        0.076999999582767487
      ],
      "type": "VEC2"
    },
    {
      "bufferView": 0,
      "byteOffset": 263700,
      "componentType": 5125,
      "count": 5757,
      "max": [
        3065
      ],
      "min": [
        0
      ],
      "type": "SCALAR"
    },
    {
      "bufferView": 2,
      "byteOffset": 671016,
      "componentType": 5126,
      "count": 24,
      "max": [
        89.546501159667969,
        20.504199981689453,
        157.43119812011719
      ],
      "min": [
        -301.63430786132812,
        -6.406400203704834,
        -243.16169738769531
      ],
      "type": "VEC3"
    },
    {
      "bufferView": 2,
      "byteOffset": 671304,
      "componentType": 5126,
      "count": 24,
      "max": [
        1,
        1,
        1
      ],
      "min": [
        -1,
        -1,
        -1
      ],
      "type": "VEC3"
    },
    {
      "bufferView": 3,
      "byteOffset": 447344,
      "componentType": 5126,
      "count": 24,
      "max": [
        1,
        0,
        1,
        1
      ],
      "min": [
        -1,
        0,
        -1,
        -1
      ],
      "type": "VEC4"
    },
    {
      "bufferView": 1,
      "byteOffset": 223672,
      "componentType": 5126,
      "count": 24,
      "max": [
        1,
        1
      ],
      "min": [
        0,
        0
      ],
      "type": "VEC2"
    },
    {
      "bufferView": 0,
      "byteOffset": 286728,
      "componentType": 5125,
      "count": 36,
      "max": [
        23
      ],
      "min": [
        0
      ],
      "type": "SCALAR"
    },
    {
      "bufferView": 2,
      "byteOffset": 671592,
      "componentType": 5126,
      "count": 351,
      "max": [
        46.885898590087891,
        -19.807600021362305,
        39.225299835205078
      ],
      "min": [
        -83.817596435546875,
        -32.066200256347656,
        -130.87030029296875
      ],
      "type": "VEC3"
    },
    {
      "bufferView": 2,
      "byteOffset": 675804,
      "componentType": 5126,
      "count": 351,
      "max": [
        0.98042750358581543,
        0.9443778395652771,
        0.99403047561645508
      ],
      "min": [
        -0.99403047561645508,
        -0.99321383237838745,
        -0.98076748847961426
      ],
      "type": "VEC3"
    },
    {
      "bufferView": 3,
      "byteOffset": 447728,
      "componentType": 5126,
      "count": 351,
      "max": [
        0.72263073921203613,
        0.99396216869354248,
        0.99868732690811157,
        1
      ],
      "min": [
        -0.99868762493133545,
        -0.99068301916122437,
        -0.48922792077064514,
        -1
      ],
      "type": "VEC4"
    },
    {
      "bufferView": 0,
      "byteOffset": 286872,
      "componentType": 5125,
      "count": 1170,
      "max": [
        350
      ],
      "min": [
        0
      ],
      "type": "SCALAR"
    }
  ],
  "asset": {
    "extras": {
      "author": "sebasxpm (https://sketchfab.com/sebasxpm)",
      "license": "CC-BY-4.0 (http://creativecommons.org/licenses/by/4.0/)",
      "source": "https://sketchfab.com/models/175183d1dee9489cba566a918981ef17",
      "title": "Ancient Greek Harbor"
    },
    "generator": "Sketchfab-3.30.3",
    "version": "2.0"
  },
  "bufferViews": [
    {
      "buffer": 0,
      "byteLength": 291552,
      "byteOffset": 0,
      "name": "floatBufferViews",
      "target": 34963
    },
    {
      "buffer": 0,
      "byteLength": 223864,
      "byteOffset": 291552,
      "byteStride": 8,
      "name": "floatBufferViews",
      "target": 34962
    },
    {
      "buffer": 0,
      "byteLength": 680016,
      "byteOffset": 515416,
      "byteStride": 12,
      "name": "floatBufferViews",
      "target": 34962
    },
    {
      "buffer": 0,
      "byteLength": 453344,
      "byteOffset": 1195432,
      "byteStride": 16,
      "name": "floatBufferViews",
      "target": 34962
    }
  ],
  "buffers": [
    {
      "byteLength": 1648776,
      "uri": "scene.bin"
    }
  ],
  "images": [
    {
      "uri": "textures/03___Default_baseColor.jpeg"
    },
    {
      "uri": "textures/02___Default_baseColor.png"
    },
    {
      "uri": "textures/01___Default_baseColor.jpeg"
    }
  ],
  "materials": [
    {
      "doubleSided": true,
      "emissiveFactor": [
        0,
        0,
        0
      ],
      "name": "01___Default",
      "pbrMetallicRoughness": {
        "baseColorFactor": [
          1,
          1,
          1,
          1
        ],
        "baseColorTexture": {
          "index": 2,
          "texCoord": 0
        },
        "metallicFactor": 0,
        "roughnessFactor": 0.59999999999999998
      }
    },
    {
      "alphaMode": "BLEND",
      "doubleSided": true,
      "emissiveFactor": [
        0,
        0,
        0
      ],
      "name": "02___Default",
      "pbrMetallicRoughness": {
        "baseColorFactor": [
          1,
          1,
          1,
          1
        ],
        "baseColorTexture": {
          "index": 1,
          "texCoord": 0
        },
        "metallicFactor": 0.67244664629999995,
        "roughnessFactor": 0.47732469509999997
      }
    },
    {
      "doubleSided": true,
      "emissiveFactor": [
        0,
        0,
        0
      ],
      "name": "03___Default",
      "pbrMetallicRoughness": {
        "baseColorFactor": [
          0.16634908540000001,
          0.16634908540000001,
          0.16634908540000001,
          1
        ],
        "baseColorTexture": {
          "index": 0,
          "texCoord": 0
        },
        "metallicFactor": 0.17244664630000001,
        "roughnessFactor": 0.1053734756
      }
    },
    {
      "doubleSided": true,
      "emissiveFactor": [
        0,
        0,
        0
      ],
      "name": "09___Default",
      "pbrMetallicRoughness": {
        "baseColorFactor": [
          1,
          1,
          1,
          1
        ],
        "metallicFactor": 0,
        "roughnessFactor": 0.59999999999999998
      }
    }
  ],
  "meshes": [
    {
      "primitives": [
        {
          "attributes": {
            "NORMAL": 1,
            "POSITION": 0,
            "TANGENT": 2,
            "TEXCOORD_0": 3
          },
          "indices": 4,
          "material": 0,
          "mode": 4
        }
      ]
    },
    {
      "primitives": [
        {
          "attributes": {
            "NORMAL": 6,
            "POSITION": 5,
            "TANGENT": 7,
            "TEXCOORD_0": 8
          },
          "indices": 9,
          "material": 1,
          "mode": 4
        }
      ]
    },
    {
      "primitives": [
        {
          "attributes": {
            "NORMAL": 11,
            "POSITION": 10,
            "TANGENT": 12,
            "TEXCOORD_0": 13
          },
          "indices": 14,
          "material": 1,
          "mode": 4
        }
      ]
    },
    {
      "primitives": [
        {
          "attributes": {
            "NORMAL": 16,
            "POSITION": 15,
            "TANGENT": 17,
            "TEXCOORD_0": 18
          },
          "indices": 19,
          "material": 1,
          "mode": 4
        }
      ]
    },
    {
      "primitives": [
        {
          "attributes": {
            "NORMAL": 21,
            "POSITION": 20,
            "TANGENT": 22,
            "TEXCOORD_0": 23
          },
          "indices": 24,
          "material": 1,
          "mode": 4
        }
      ]
    },
    {
      "primitives": [
        {
          "attributes": {
            "NORMAL": 26,
            "POSITION": 25,
            "TANGENT": 27,
            "TEXCOORD_0": 28
          },
          "indices": 29,
          "material": 1,
          "mode": 4
        }
      ]
    },
    {
      "primitives": [
        {
          "attributes": {
            "NORMAL": 31,
            "POSITION": 30,
            "TANGENT": 32,
            "TEXCOORD_0": 33
          },
          "indices": 34,
          "material": 1,
          "mode": 4
        }
      ]
    },
    {
      "primitives": [
        {
          "attributes": {
            "NORMAL": 36,
            "POSITION": 35,
            "TANGENT": 37,
            "TEXCOORD_0": 38
          },
          "indices": 39,
          "material": 2,
          "mode": 4
        }
      ]
    },
    {
      "primitives": [
        {
          "attributes": {
            "NORMAL": 41,
            "POSITION": 40,
            "TANGENT": 42
          },
          "indices": 43,
          "material": 3,
          "mode": 4
        }
      ]
    }
  ],
  "nodes": [
    {
      "children": [
        1
      ],
      "name": "RootNode (gltf orientation matrix)",
      "rotation": [
        -0.70710678118654746,
        -0,
        -0,
        0.70710678118654757
      ]
    },
    {
      "children": [
        2
      ],
      "matrix": [
        0,
        0,
        -1,
        0,
        0,
        -1,
        0,
        0,
        -1,
        0,
        0,
        0,
        -148.91006469726562,
        -57.82196044921875,
        -148.91006469726562,
        1
      ],
      "name": "RootNode (model correction matrix)"
    },
    {
      "children": [
        3,
        4,
        5,
        6,
        7,
        8,
        9,
        10,
        11
      ],
      "name": "Final 3D 1 - Sebastian Paredes obj.obj.cleaner.materialmerger.gles"
    },
    {
      "mesh": 0,
      "name": ""
    },
    {
      "mesh": 1,
      "name": ""
    },
    {
      "mesh": 2,
      "name": ""
    },
    {
      "mesh": 3,
      "name": ""
    },
    {
      "mesh": 4,
      "name": ""
    },
    {
      "mesh": 5,
      "name": ""
    },
    {
      "mesh": 6,
      "name": ""
    },
    {
      "mesh": 7,
      "name": ""
    },
    {
      "mesh": 8,
      "name": ""
    }
  ],
  "samplers": [
    {
      "magFilter": 9729,
      "minFilter": 9987,
      "wrapS": 10497,
      "wrapT": 10497
    }
  ],
  "scene": 0,
  "scenes": [
    {
      "name": "OSG_Scene",
      "nodes": [
        0
      ]
    }
  ],
  "textures": [
    {
      "sampler": 0,
      "source": 0
    },
    {
      "sampler": 0,
      "source": 1
    },
    {
      "sampler": 0,
      "source": 2
    }
  ]
}

